# xmcd
#
# Track frame offsets:
#	183
#	15655
#	31940
#	48355
#	63408
#	82628
#	97920
#	111660
#	130138
#	150623
#	163605
#	178193
#	191610
#	203435
#	222143
#	235945
#	248135
#	262610
#	275468
#
# Disc length: 3905
#
# Revision: 1
# Processed by: cddbd v1.5.1PL0 Copyright (c) Steve Scherf et al.
# Submitted via: EasyCDDAExtractor 4.5.0.2
# Normalized: r0:TDELIM( - )
#
DISCID=f20f3f13
DTITLE=x - Das Beste Wunschkonzert
DYEAR=1988
DGENRE=Volksmusik und Schlager
TTITLE0=Gebrüder Blattschuss - Kreuzberger Nächte
TTITLE1=Smokie - Mexican Girl
TTITLE2=Polo Hofer - Radio 24
TTITLE3=Andy L. - Solo per te
TTITLE4=Gottlieb Wendehals - Polonaise Blankanese
TTITLE5=Milk and Honey - halleluja
TTITLE6=Katja Ebstein - Der Stern von Mykonos
TTITLE7=Roland Kaiser - Santa Maria
TTITLE8=Drupi - Piccola e fragile
TTITLE9=Dorados - Si, si
TTITLE10=Nicole - Flieg nicht so hoch mein kleiner Freund
TTITLE11=Alain Morisod - Le lac de Côme
TTITLE12=Milva - La Filanda
TTITLE13=Phil Trim - Rum and Coca Cola
TTITLE14=Lena Valaitis - Johnny Blue
TTITLE15=Nöggi - I bin en Italiano
TTITLE16=Joe Dolce Music Theatre - Shaddap You Face
TTITLE17=Top Cats - Farewell Goodbye
TTITLE18=Peter, Sue and Marc - Birds of Paradise
EXTD=CD von I.B.\n
EXTT0=
EXTT1=
EXTT2=
EXTT3=
EXTT4=
EXTT5=
EXTT6=
EXTT7=
EXTT8=
EXTT9=
EXTT10=
EXTT11=
EXTT12=
EXTT13=
EXTT14=
EXTT15=
EXTT16=
EXTT17=
EXTT18=
PLAYORDER=
